<svg width="1536" height="960" viewBox="0 0 1536 960" fill="none" xmlns="http://www.w3.org/2000/svg">
<mask id="mask0_19_171" style="mask-type:luminance" maskUnits="userSpaceOnUse" x="0" y="0" width="1536" height="960">
<path d="M1536 0H0V960H1536V0Z" fill="black" fill-opacity="0.29"/>
</mask>
<g mask="url(#mask0_19_171)">
<mask id="mask1_19_171" style="mask-type:luminance" maskUnits="userSpaceOnUse" x="188" y="247" width="489" height="482">
<path d="M676.667 247H188.667V728.333H676.667V247Z" fill="white"/>
</mask>
<g mask="url(#mask1_19_171)">
<mask id="mask2_19_171" style="mask-type:luminance" maskUnits="userSpaceOnUse" x="238" y="321" width="396" height="245">
<path d="M238 321.667H633.042V565.667H238V321.667Z" fill="white"/>
</mask>
<g mask="url(#mask2_19_171)">
<path d="M239.63 322.943C283.109 379.271 374.109 454.38 442.661 474.458C490.438 506.937 540.318 538.458 596.349 554.391C614.901 559.599 634.052 562.891 653.328 563.234C653.641 563.24 653.891 563.495 653.885 563.807C653.88 564.12 653.625 564.365 653.313 564.359C633.917 564.109 614.641 560.896 595.974 555.75C540.354 540.286 488.203 508.135 442.026 476.62C373.891 455.719 295.182 389.865 248.708 336.24C245.266 332.12 241.896 327.943 238.719 323.609C238.536 323.359 238.589 323.005 238.839 322.818C239.094 322.635 239.448 322.687 239.63 322.943Z" fill="#B3AAFF"/>
</g>
<path d="M307.703 316.464C326.115 346.266 345.693 375.401 367.349 402.948C383.635 423.464 400.896 443.474 421.219 460.073C428.005 465.531 435.156 470.568 442.859 474.531C443.099 474.656 443.276 474.859 443.38 475.089C476.271 548.875 532.089 613.411 602.167 654.026C602.438 654.177 602.531 654.521 602.38 654.792C602.224 655.062 601.88 655.161 601.609 655.005C531.021 614.531 474.698 549.979 441.307 475.99C441.307 475.984 441.828 476.542 441.828 476.542C433.953 472.427 426.719 467.276 419.885 461.714C386.198 433.365 360.005 397.365 335.151 361.344C325.313 346.823 315.865 332.026 306.74 317.052C306.578 316.786 306.661 316.437 306.927 316.276C307.193 316.115 307.542 316.198 307.703 316.464Z" fill="#B3AAFF"/>
<mask id="mask3_19_171" style="mask-type:luminance" maskUnits="userSpaceOnUse" x="221" y="474" width="413" height="47">
<path d="M221.042 474.224H633.042V520.068H221.042V474.224Z" fill="white"/>
</mask>
<g mask="url(#mask3_19_171)">
<path d="M190.911 511.995C263.964 526.312 379.073 517.052 441.698 474.615C442.016 474.391 442.427 474.354 442.76 474.49C497.984 496.104 556.943 507.87 616.021 512.068C635.75 513.339 655.578 513.599 675.312 512.271C675.625 512.25 675.891 512.484 675.911 512.797C675.932 513.104 675.703 513.375 675.391 513.396C655.599 514.828 635.724 514.656 615.932 513.474C556.625 509.542 497.469 498.021 441.922 476.583C441.922 476.589 442.995 476.458 442.99 476.464C385.286 514.995 290.833 524.073 222.828 517.865C212.047 516.812 201.302 515.286 190.682 513.099C190.375 513.036 190.182 512.74 190.245 512.432C190.307 512.125 190.604 511.932 190.911 511.995Z" fill="#B3AAFF"/>
</g>
<mask id="mask4_19_171" style="mask-type:luminance" maskUnits="userSpaceOnUse" x="239" y="424" width="395" height="166">
<path d="M239.333 424.333H633.042V589.667H239.333V424.333Z" fill="white"/>
</mask>
<g mask="url(#mask4_19_171)">
<path d="M239.891 588.271C304.891 566.766 395.505 525.943 441.495 474.792C441.74 474.516 442.083 474.391 442.422 474.411C500.911 477.656 559.849 467.318 615.229 448.76C633.688 442.37 651.745 434.724 668.849 425.286C669.12 425.135 669.464 425.234 669.615 425.51C669.766 425.781 669.672 426.125 669.396 426.276C652.266 435.833 634.182 443.594 615.693 450.094C560.161 469 501.036 479.646 442.266 476.661C442.26 476.661 443.193 476.281 443.193 476.281C405.573 517.526 346.078 547.219 295.151 569.047C277.135 576.578 258.849 583.448 240.229 589.349C239.932 589.443 239.615 589.276 239.521 588.979C239.427 588.682 239.594 588.365 239.891 588.271Z" fill="#B3AAFF"/>
</g>
<mask id="mask5_19_171" style="mask-type:luminance" maskUnits="userSpaceOnUse" x="338" y="375" width="296" height="303">
<path d="M338 375H633.042V677.083H338V375Z" fill="white"/>
</mask>
<g mask="url(#mask5_19_171)">
<path d="M338.271 709.411C350.891 692.016 362.156 673.651 372.813 654.99C393.948 617.594 412.609 578.635 426.344 537.891C433.12 517.557 438.651 496.698 441.224 475.406C441.292 474.917 441.651 474.547 442.104 474.432C444.521 473.849 450.635 472.38 452.964 471.818C457.109 470.656 463.188 468.984 467.297 467.688C515.948 452.156 562.255 429.896 607.068 405.573C624.542 395.979 641.75 385.885 658.568 375.177C658.828 375.005 659.177 375.083 659.344 375.344C659.516 375.609 659.438 375.958 659.177 376.125C642.385 386.932 625.203 397.12 607.75 406.807C572.802 426.12 536.88 443.766 499.703 458.401C488.958 462.677 477.146 466.792 466.151 470.302C462.76 471.297 456.901 473.01 453.531 473.948C451.203 474.516 444.984 476.052 442.583 476.641C442.583 476.641 443.469 475.667 443.464 475.677C440.781 497.13 435.125 518.083 428.219 538.521C410.656 589.458 385.948 637.771 357.344 683.349C351.573 692.443 345.557 701.391 339.182 710.083C338.995 710.333 338.641 710.385 338.391 710.203C338.141 710.016 338.083 709.661 338.271 709.411Z" fill="#B3AAFF"/>
</g>
<mask id="mask6_19_171" style="mask-type:luminance" maskUnits="userSpaceOnUse" x="355" y="298" width="112" height="380">
<path d="M355.948 298.083H466.151V677.083H355.948V298.083Z" fill="white"/>
</mask>
<g mask="url(#mask6_19_171)">
<path d="M357.26 249.234C365.344 289.052 376.083 328.359 388.938 366.896C400.573 400.276 413.016 434.099 433.448 463.208C436.427 467.271 439.63 471.172 443.146 474.74C443.38 474.984 443.49 475.312 443.469 475.63L442.927 483.505C442.141 494.354 441.891 506.151 441.714 517.042C441.557 566.422 445.198 615.88 452.891 664.667C456.245 685.469 460.396 706.172 466 726.484C466.083 726.781 465.906 727.099 465.604 727.177C465.302 727.26 464.995 727.089 464.911 726.786C453.615 686.057 447.5 644.073 443.573 602.052C441.068 574.479 439.672 546.708 439.656 519.01C439.693 507.391 439.953 494.948 440.708 483.359L441.219 475.443C441.219 475.443 441.547 476.344 441.536 476.328C406.641 438.792 383.734 358.76 369.974 308.906C364.797 289.224 360.016 269.437 356.156 249.448C356.099 249.146 356.297 248.844 356.604 248.786C356.911 248.729 357.203 248.927 357.26 249.234Z" fill="#B3AAFF"/>
</g>
<mask id="mask7_19_171" style="mask-type:luminance" maskUnits="userSpaceOnUse" x="440" y="298" width="173" height="180">
<path d="M440.667 298.083H612.667V477.667H440.667V298.083Z" fill="white"/>
</mask>
<g mask="url(#mask7_19_171)">
<path d="M504.318 267.187C498.771 312.385 488.708 357.036 474.854 400.406C466.406 426.422 456.328 451.958 443.333 476.078L441.833 474.531C443.208 473.75 445.849 472.422 447.109 471.625C452.307 468.536 457.297 465.073 462.094 461.391C472.786 453.146 482.75 444 492.354 434.495C522.969 403.875 550.245 369.99 575.474 334.833C588.031 317.193 600.01 299.115 610.87 280.375C611.026 280.104 611.37 280.016 611.641 280.167C611.911 280.323 612.005 280.667 611.849 280.937C606.458 290.354 600.76 299.594 594.87 308.703C577.156 336.01 557.802 362.229 537.219 387.438C516.484 412.5 494.714 436.969 469.766 457.979C462.964 463.651 455.849 468.984 448.245 473.547C446.661 474.531 444.391 475.672 442.854 476.547C442.313 476.844 441.63 476.641 441.339 476.099C441.141 475.74 441.161 475.328 441.354 474.995C454.391 451.099 464.578 425.677 473.109 399.839C485.828 360.969 495.214 320.995 501.38 280.568C502.036 276.073 502.656 271.573 503.198 267.057C503.234 266.75 503.516 266.526 503.828 266.568C504.135 266.599 504.354 266.88 504.318 267.187Z" fill="#B3AAFF"/>
</g>
<path d="M552.844 467.385C550.297 472.729 549.922 478.901 549.766 484.745C549.786 491.359 550.323 498.068 551.625 504.516C551.781 505.297 551.953 506.156 551.917 506.958C551.854 510.177 550.365 513.01 549.229 515.885C546.135 522.823 540.818 529.411 533.146 531.542C533.141 531.547 534.224 530.547 534.224 530.547C530.62 539.115 524.979 546.208 517.849 551.943C510.776 557.464 501.646 562.042 492.406 560.125C492.396 560.125 493.641 559.833 493.635 559.833C489.547 562.229 485.755 564.687 481.656 566.745C473.422 570.76 464.297 572.88 455.115 572.859C450.438 572.781 445.604 572.292 441.344 570.146L442.828 570.052C441.557 570.521 440.401 571.062 439.255 571.599L435.844 573.203C428.828 576.479 419.839 577.135 414.385 570.641C414.375 570.63 415.427 571.187 415.422 571.187C405.286 570.224 397.5 560.307 392.13 552.521C389.344 548.354 386.891 543.984 384.698 539.484C382.49 534.948 380.01 530.531 378.578 525.62L379.557 526.599C374.573 524.531 370.661 520.562 367.802 516.099C366.104 513.344 364.87 510.583 363.615 507.5C363.594 507.323 363.583 507.141 363.641 506.984C366.682 496.292 368.448 485.203 369.833 474.177C370.484 468.635 370.974 463.068 371.135 457.495C371.224 452.016 371.042 446.276 369.266 441.089C369 440.437 369.417 439.677 370.115 439.568C371.75 439.276 373.344 438.344 374.688 437.135C377.422 434.656 379.297 431.229 380.464 427.734C380.995 425.953 381.26 424.016 380.76 422.198L380.807 421.911C380.922 421.234 381.63 420.802 382.286 421.021C383.214 421.318 384.25 421.401 385.297 421.312C386.344 421.214 387.401 420.948 388.427 420.562C393.932 418.432 400.609 412.292 401.536 406.24C401.776 405.661 402.401 405.323 403 405.479C405.948 406.208 408.964 406.708 412.01 407.042C430.271 409.042 459.078 405.51 474.573 395.297C475.094 394.937 475.813 395.078 476.167 395.609L476.37 395.911C479 405.615 489.313 412.589 498.25 416.089C501.448 417.302 504.776 418.161 508.13 418.531C508.589 418.583 508.958 418.901 509.089 419.318C509.094 419.318 509.167 419.562 509.167 419.562C509.167 422.26 509.87 424.937 510.917 427.448C513.089 432.453 516.495 436.911 520.469 440.609C522.469 442.443 524.661 444.094 527.021 445.281C527.495 445.516 527.724 446.036 527.615 446.526C527.615 446.526 527.536 446.849 527.536 446.854C525.177 450.281 524.703 454.682 524.958 458.755C525.24 462.823 526.224 467.036 528.391 470.495C528.594 470.812 528.589 471.203 528.406 471.505L528.156 471.917C526.25 473.26 524.823 475.297 523.776 477.469C520.625 484.13 521.026 491.797 521.552 498.958C521.677 501.083 520.807 503.115 519.849 504.937C517.26 510.422 513.391 515.375 507.661 517.891L508.573 517.031C505.177 523.057 502.505 529.312 497.693 534.339C492.875 539.573 486.031 542.474 478.849 541.708L480.208 541.062C472.292 550.573 464.797 555.99 452.016 556.469C448.313 556.578 444.583 556.229 440.885 555.276L442.229 554.969C436.469 558.042 432.609 561 425.76 558.703C423.896 558.083 422.141 557.161 420.427 556.161L421.276 556.448C409.948 555.844 400.932 538.172 396.542 529.068L391.161 517.635L392.021 518.542C390.375 517.661 389.089 516.615 387.828 515.516C383.948 512.172 381.474 508.016 379.089 503.474L379.12 502.87C380.563 498.599 381.245 494.047 381.932 489.594C382.589 485.062 383.068 480.505 383.411 475.937C383.88 469.109 384.26 462.203 383.448 455.385C383.146 453.234 382.797 450.891 381.88 448.964C381.635 448.469 381.807 447.875 382.266 447.583L382.714 447.307C386.672 446.849 389.344 440.953 390.099 437.401C390.396 435.927 390.536 434.401 390.292 432.891C390.234 432.536 390.438 432.198 390.766 432.078C390.766 432.073 391.547 431.776 391.547 431.776C396.786 432.385 402.422 430.203 405.964 426.281C407.109 424.927 407.964 423.276 408.083 421.531C408.109 421.161 408.406 420.87 408.766 420.839L409.599 420.76C424.922 425.135 441.448 422.401 456.047 416.599C460.984 414.672 465.755 412.245 469.99 408.984C470.474 408.609 471.182 408.714 471.542 409.214L471.823 409.62C472.422 412.521 473.88 415.229 475.865 417.469C481.927 424.057 491.344 427.245 500.167 426.682C500.88 426.625 501.495 427.224 501.458 427.937C501.458 427.937 501.443 428.234 501.443 428.24C499.693 432.641 500.323 437.776 502.656 441.865C504.969 445.979 508.708 449.307 513 451.214C513.474 451.422 513.719 451.932 513.615 452.422L513.526 452.828C511.432 455.656 510.573 459.25 510.651 462.74C510.755 466.125 511.589 469.74 513.885 472.307C514.125 472.562 514.177 472.932 514.042 473.234L513.786 473.812C510.677 476.297 509.49 480.479 508.698 484.24C508.313 486.203 508.094 488.208 508.078 490.193C508.094 492.078 508.219 494.224 509.057 495.859C509.057 495.865 509.099 496.13 509.099 496.13C508.635 497.932 508.281 499.635 507.719 501.286C506.13 506.646 501.62 510.026 496.349 511.464C496.349 511.469 497.427 510.536 497.422 510.557C494.495 515.625 492.026 520.76 487.682 524.724C483.411 528.74 477.677 531.12 471.729 531.062L472.922 530.516C471.698 531.536 470.573 532.568 469.443 533.573C461.521 541.161 451.234 545.734 440.339 541.755C440.333 541.76 441.984 541.312 441.964 541.328C439.948 542.672 438.26 544.302 436.068 545.318C432.177 547.151 428 545.146 425.115 542.354C425.109 542.354 426.651 542.781 426.62 542.786C422.74 544.016 418.859 541.625 416.224 539.042C408.573 531.578 404.656 521.505 398.563 512.885L399.401 513.583C394.026 510.839 390.703 505.896 388.375 500.505L388.526 499.771C393.76 491.016 395.625 477.224 395.891 467.052C395.891 463.318 395.651 459.443 394.443 455.911C394.313 455.542 394.432 455.146 394.719 454.906L395.255 454.464C397.286 454.385 398.813 452.073 399.667 450.328C400.609 448.307 401.219 445.917 400.547 443.719C400.474 443.51 400.557 443.281 400.74 443.172C400.745 443.167 401.755 442.547 401.755 442.542C405.906 443.104 411.755 439.474 413.417 435.62C413.677 434.984 413.854 434.312 413.839 433.63C413.833 433.323 414.063 433.068 414.365 433.031L415.406 432.901C419.276 434.271 423.344 435.146 427.469 435.573C438.26 436.687 454.708 434.714 463.182 427.49C463.672 427.047 464.464 427.172 464.802 427.734C464.802 427.74 465.099 428.234 465.104 428.24C465.458 434.911 471.234 439.74 477.109 441.964C479.115 442.745 481.198 443.323 483.349 443.76C483.714 443.839 483.995 444.104 484.094 444.443C484.094 444.448 484.219 444.87 484.219 444.875C483.479 448.12 485.339 451.307 487.854 453.276C490.443 455.354 493.536 456.667 496.729 457.578C497.177 457.703 497.458 458.12 497.438 458.562L497.411 459.125C495.656 461.318 495.677 464.349 496.547 466.901C497.417 469.495 499.052 471.781 501.13 473.557C501.375 473.76 501.464 474.073 501.396 474.359C501.396 474.365 501.255 474.958 501.255 474.964C498.938 477.281 497.828 480.516 497.661 483.734C497.495 487.005 498.349 490.13 498.536 493.406C498.521 494.266 498.167 495.099 497.729 495.828C496.422 497.693 495.286 499.609 493.531 501.073C491.193 503.047 488.417 504.307 485.365 504.927L486.604 503.885C485.432 506.193 484.38 508.333 483.198 510.432C479.797 516.667 473.49 523.255 465.698 521.922C465.693 521.927 467.255 521.229 467.24 521.25C462.052 527.375 456.302 532.245 448.047 532.964C445.458 533.193 442.786 532.932 440.203 532.115L441.714 531.771C436.724 534.078 433.682 534.047 428.969 531.167C428.969 531.172 430.099 531.542 430.063 531.542C420.63 531.802 414.656 521.771 410.984 514.375C409.656 511.693 408.438 509.073 407.198 506.297L408.479 507.333C405.516 506.719 402.964 505.26 400.88 503.177C399.281 501.547 398.188 499.797 396.323 498.297C396.323 498.292 396.292 497.245 396.292 497.24C397.719 494.391 398.802 491.302 399.714 488.182C401.969 479.979 404.552 467.516 401.135 459.505C401.135 459.5 401.703 458.089 401.708 458.089C401.792 458.13 401.99 458.068 402.156 457.979C402.734 457.672 403.208 457.172 403.646 456.667C405.224 454.646 406.891 451.562 405.885 448.979C405.786 448.786 405.854 448.552 406.036 448.448L407.182 447.776C408.229 448.021 409.391 448.01 410.521 447.823C413.094 447.385 418.036 445.5 418.333 442.479C418.359 442.349 418.344 442.198 418.323 442.052C418.302 441.885 418.417 441.734 418.578 441.714C418.583 441.714 420.021 441.51 420.026 441.51C422.87 443.115 426.057 444.193 429.328 444.854C438.073 446.594 451.286 445.786 458.271 439.714C458.698 439.323 459.38 439.385 459.724 439.849C459.729 439.854 460.115 440.365 460.12 440.37C460.521 443.797 462.776 446.844 465.786 448.469C468.833 450.151 472.385 450.245 475.776 450.24C476.479 450.234 477.042 450.833 477.005 451.531C476.578 452.672 476.557 453.917 476.849 455.089C477.453 457.479 479.333 459.375 481.427 460.583C482.495 461.193 483.646 461.646 484.87 461.932C485.198 462.01 485.422 462.292 485.443 462.609C485.443 462.615 485.479 463.177 485.479 463.182C484.333 465.115 484.583 467.552 485.245 469.625C485.818 471.255 486.87 472.792 487.099 474.578C487.396 476.401 486.594 478.203 486.208 479.906C485.505 483.484 484.943 487.021 482.708 490.099L483.141 489.214C482.667 490.068 482.141 491.182 481.693 492.036C480.375 494.859 478.276 497.01 475.542 498.562C475.542 498.568 476.469 497.672 476.464 497.693C472.245 503.521 468.88 512.453 460.698 513.182C460.698 513.182 461.88 512.62 461.87 512.63C456.672 516.755 453.073 519.677 446.068 519.271C444.109 519.156 442.167 518.771 440.245 518.245L441.151 518.229C439.651 517.99 438.563 518.156 437.177 517.943C436.094 517.797 434.599 517.276 433.542 516.964L434.01 517.12C431.766 516.786 429.609 516.161 427.599 515.255C420.911 512.297 417.703 507.318 413.75 501.484L414.531 502.266C412.359 500.568 409.87 498.719 407.911 496.792C407.203 496.156 406.448 495.557 405.5 494.88L405.391 493.964C407.214 489.016 408.661 483.984 409.568 478.802C409.99 476.229 410.385 473.625 410.349 471.01C410.292 468.396 409.75 465.812 409.198 463.37C409.104 463.016 409.203 462.635 409.438 462.391C411.375 461.354 412.682 459.276 412.823 457.109C412.865 456.375 412.693 455.635 412.354 454.953L413.521 453.745C413.865 453.865 414.333 453.896 414.781 453.865C417.099 453.781 422.271 451.849 422.281 449.083C422.229 448.859 422.396 448.63 422.625 448.615L423.932 448.531C430.547 452.875 438.99 454.385 446.703 452.714C449.255 452.141 451.703 451.193 453.932 449.87C454.563 449.484 455.427 449.818 455.641 450.526L455.766 450.927C455.589 451.448 455.568 452.031 455.641 452.609C456.052 456.167 460.49 460.583 464.188 459.932C464.625 459.823 465.073 460.094 465.182 460.536L465.188 460.552C465.188 460.557 465.37 461.38 465.37 461.385C463.776 463.536 465.391 468.021 468.391 467.406C468.474 467.38 468.563 467.427 468.594 467.505C468.594 467.516 468.599 467.526 468.599 467.536C468.599 467.536 468.87 469.547 468.87 469.552C466.385 469.63 466.875 474.755 468.755 475.458C468.818 475.484 468.854 475.547 468.844 475.609L468.599 477.068C467.932 477.167 467.385 477.615 466.979 478.141C465.953 479.568 465.557 481.797 466.51 483.344C466.594 483.448 466.708 483.542 466.797 483.5C466.854 483.464 466.938 483.531 466.917 483.599L466.51 484.958C466.229 484.969 465.943 485.052 465.672 485.125C463.917 485.797 462.958 487.625 462.766 489.427L462.995 489.036C462.161 490.089 461.365 490.802 460.448 491.656C457.943 494.031 454.932 495.911 451.339 495.844L452.271 495.484C450.505 496.75 448.495 497.281 446.432 497.719C444.365 498.104 441.979 497.734 440.401 496.177L441.089 496.547C436.036 495.573 431.531 493.031 429.656 488.005L430.13 488.547C429.703 488.453 429.339 488.161 429.036 487.839C428.161 486.703 427.359 485.812 426.583 484.536L426.62 484.219C428.464 480.589 429.729 475.115 428.25 471.193L429.047 470.047C431.339 470.26 434.156 469.078 433.938 466.474L435.198 465.911C438.479 468.047 443.297 468.104 446.422 465.682L447.859 466.031L447.875 466.255L447.917 466.458C448.271 468.417 450.568 469.38 452.297 468.531C452.302 468.531 452.5 468.422 452.5 468.422L453.229 468.786C453.151 470.276 454.25 471.63 455.771 471.5C455.771 471.5 455.958 471.474 455.964 471.474L456.354 472.354C455.776 472.922 455.51 473.521 455.505 474.25C455.49 474.724 455.703 475.245 456.026 475.615C456.177 475.76 456.344 475.943 456.526 476.057L456.37 476.745C454.984 477.307 453.776 478.583 454.083 480.161C454.214 480.828 453.781 481.464 453.12 481.594C451.667 481.854 451.089 479.823 452.432 479.266C453.922 478.661 454.333 476.964 454.052 475.49L453.896 476.177L454.042 476.057C455.135 475.036 454.906 473.375 453.724 472.474L454.115 473.354C454.359 471.76 452.953 470.552 451.38 470.661L452.109 471.026C451.25 470.245 450.156 469.714 449.151 469.177C448.125 468.651 447.042 468.083 445.906 467.797L447.349 468.146C445.146 468.328 443.073 468.406 440.917 468.271C438.813 468.161 436.807 467.896 434.661 468.104L435.922 467.542C434.776 468.292 433.917 469.146 432.885 469.953C431.932 470.719 430.948 471.422 430.083 472.469L430.88 471.323C429.375 474.328 429.516 478.099 429.052 481.359C428.938 482.49 428.828 483.625 428.802 484.786L428.839 484.464C428.292 484.979 428.354 485.812 428.802 486.344C429.344 486.937 430.286 486.797 430.891 487.281C431.031 487.37 431.109 487.516 431.12 487.672C431.188 489.964 432.693 492.016 434.641 493.156C436.599 494.339 438.969 494.849 441.24 494.667C441.526 494.646 441.781 494.802 441.901 495.042C442.208 495.766 442.849 496.354 443.661 496.667C445.776 497.531 449.839 496.599 450.771 494.354C450.823 493.99 451.234 493.776 451.563 493.932C454.458 495.401 457.99 493.49 459.615 490.943C460.12 490.141 460.63 489.062 460.521 488.13L460.75 487.74C462.292 487.323 463.427 486.109 464.151 484.74C464.38 484.292 464.51 483.818 464.63 483.333L464.661 483.083L464.38 484.547C464.313 483.937 464.406 483.552 464.516 483.036C465.219 480.391 465.901 477.937 466.693 475.255L466.536 476.87C466.219 475.187 466.302 473.911 466.38 472.344C466.557 470.812 466.5 469.24 466.974 467.724L467.448 469.865C464.948 467.323 463.646 464.495 462.75 461.109L463.938 462.552C459.276 460.932 455.25 455.505 453.151 451.224L454.99 452.281C452.333 453.109 449.641 453.734 446.932 454.052C438.724 455.161 430.839 452.76 422.911 450.953L424.557 450.396C423.635 451.161 422.656 451.583 421.682 452.099C420.807 452.542 419.984 453.016 419.146 453.479L416.615 454.885C415.76 455.359 414.755 455.964 413.802 456.354L414.974 455.109C414.51 455.911 414.188 456.641 413.87 457.354C412.979 459.557 412.115 461.609 411.563 463.948L411.802 462.974C412.026 465.729 411.568 468.427 411.271 471.057C410.651 478.964 409.109 486.75 407.943 494.583C407.938 494.609 407.833 493.667 407.833 493.672C407.734 494.609 408.042 495.495 408.557 496.208C410.182 498.255 412.839 499.63 415.438 499.797C415.438 499.797 416.219 500.573 416.219 500.578C416.375 502.703 417.151 504.724 418.271 506.516C421.641 511.786 427.766 515.562 434.104 515.24C434.109 515.24 434.573 515.396 434.573 515.396C435.656 516.943 439.167 518.443 440.203 516.177C440.49 516.125 440.849 515.99 441.104 516.161C445.813 518.974 452.219 519.078 456.625 515.599C458.068 514.453 459.214 512.917 459.719 511.109C459.724 511.109 460.099 510.75 460.099 510.75C460.318 510.542 460.625 510.479 460.896 510.557C462.359 510.974 464.068 510.641 465.578 509.839C469.724 507.583 473.974 501.734 473.958 496.891L474.51 496.172C474.599 496.057 474.74 496 474.88 496.016C477.943 496.391 481.156 493.521 480.885 490.359C480.854 489.906 480.734 489.458 480.516 489.031L480.755 488.365C480.792 488.266 480.859 488.187 480.948 488.146C481.818 487.724 482.578 486.932 483.188 486.036C484.401 484.208 485.161 481.984 485.396 479.786C485.5 478.385 485.115 477 484.958 475.635C484.661 473.724 484.651 471.776 484.401 469.828C483.99 467.469 483.417 465.151 483.271 462.719L483.875 463.958C482.833 463.125 481.771 462.349 480.776 461.505C478.193 459.422 476.224 456.719 475.083 453.583C474.839 452.937 474.62 452.271 474.37 451.573L475.604 452.865C470.198 452.161 464.958 449.708 461.203 445.719C459.906 444.375 458.823 442.88 457.688 441.37L459.531 442.021C457.797 442.516 456.141 443.047 454.484 443.536C443.01 447.229 430.401 448.146 418.917 443.896C418.891 443.885 420.609 443.354 420.604 443.349C418.427 444.698 416.49 446.396 414.255 447.641C412.026 448.88 409.776 449.859 407.208 450.406L408.505 449.203C407.568 450.964 406.578 452.807 405.87 454.651L404.75 457.333C404.281 458.375 403.953 459.411 403.125 460.302L403.698 458.891C403.906 462.385 403.797 465.667 403.62 468.969C403.083 478.885 401.438 488.63 398.734 498.214C398.724 498.245 398.703 497.167 398.698 497.172C398.646 498.453 399.063 499.604 399.688 500.604C401.547 503.396 405.104 505.531 408.484 504.703C408.49 504.703 409.146 504.891 409.146 504.896C409.526 505.005 409.771 505.359 409.771 505.74C409.661 514.323 419.813 531.292 429.724 528.932H429.729L430.552 529.099C430.672 529.125 430.776 529.203 430.828 529.307C431.276 530.146 431.906 530.885 432.667 531.448C434.714 533.151 439.214 533.302 439.724 530.047C439.724 530.047 440.036 529.786 440.042 529.786C440.391 529.505 440.87 529.484 441.24 529.698C443.24 530.849 445.599 531.453 447.995 531.495C454.708 531.661 463.51 527.125 464.88 520.078C464.885 520.073 465.104 519.76 465.109 519.755C465.411 519.328 465.969 519.187 466.427 519.391C474.526 522.792 484.766 511.089 484.031 503.349C484.031 503.344 484.24 502.87 484.245 502.865C484.422 502.453 484.849 502.234 485.271 502.297C489.24 502.859 493.693 500.839 495.714 497.307C496.313 496.083 496.104 494.63 496.292 493.349C496.005 491.177 496.208 486.562 496.766 483.635C497.297 480.25 498.286 477.172 498.917 473.75L499.036 475.151C498.406 473.818 497.755 472.521 497.182 471.193C496.609 469.87 496.104 468.526 495.75 467.135C494.984 464.276 495.052 461.359 494.88 458.401C494.885 458.37 495.563 459.943 495.563 459.937C491.469 456.891 486.786 454.422 483.964 449.995C483 448.542 482.271 446.901 481.599 445.135L482.469 446.245C472.76 441.495 468.026 438.792 462.589 429.016L464.505 429.76C456.62 432.594 448.37 435.526 440.026 436.5C431.599 437.594 423.021 437.286 414.682 435.432L416.245 434.698C413.026 437.984 410.193 441.089 406.214 443.349C404.922 444.078 403.563 444.745 401.953 445.167L403.161 443.995C402.016 446.167 401.271 448.391 400.396 450.651C399.38 453.021 398.531 455.245 396.219 456.911L397.036 455.464C397.042 459.411 396.88 463.182 396.698 467.073C396.375 474.708 395.63 482.302 394.13 489.812C393.344 493.635 392.417 497.38 390.844 501.01L390.995 500.276C389.484 505.177 395.484 510.828 400.094 511.047C400.359 511.234 400.875 511.396 400.938 511.75C401.854 515.161 403.219 518.365 404.828 521.448C408.427 527.917 414.349 537.755 421.417 540.453C422.839 540.937 424.37 540.984 425.693 540.323L426.396 540.276C426.745 540.255 427.063 540.453 427.203 540.75C427.807 542 428.693 543.12 429.818 543.922C433.51 546.703 438.891 544.229 439.813 539.807C440.208 539.271 440.854 539.026 441.443 539.37C446.375 542.281 452.667 542.312 457.995 540.281C463.313 538.182 468.651 534.521 470.771 528.995C470.776 528.99 470.979 528.766 470.984 528.76C471.24 528.484 471.62 528.375 471.969 528.443C477.307 529.542 482.984 527.625 487.089 524.057C491.24 520.448 494.51 515.375 494.901 509.776C494.906 509.771 495.115 509.37 495.12 509.37C495.286 509.036 495.63 508.854 495.974 508.859C499.172 508.932 502.432 507.708 504.609 505.302C506.807 502.911 507.958 499.359 506.844 496.198C505.99 490.37 508.766 478.729 511.729 472.167C511.734 472.156 511.63 473.672 511.63 473.667C508.906 466.547 509.885 459.151 511.083 451.839L511.609 453.448C509.651 451.828 507.833 450.135 506.193 448.276C500.917 442.474 498.693 435.552 498.849 427.771C498.849 427.75 500.125 429.318 500.125 429.318C493.906 428.609 487.896 426.828 482.505 423.703C477.021 420.568 472.995 415.885 469.411 410.667L471.25 411.297C461.135 415.021 451.62 419.849 441.068 422.177C430.599 424.687 419.651 425.312 408.995 423.323L410.51 422.552C405.693 428.792 399.5 432.984 391.646 434.406L392.896 433.292C390.333 438.411 388.708 446.833 383.547 449.802C383.536 449.807 384.38 448.146 384.38 448.146C385.125 452.854 384.786 457.51 384.755 462.219C384.516 473.719 383.859 485.187 382.667 496.635C382.401 498.943 382.151 501.224 381.646 503.604L381.677 503C381.125 506.161 382.943 509.182 385.042 511.417C387.125 513.599 389.839 515.573 392.849 516.047C393.188 516.276 393.698 516.484 393.708 516.953C394.109 521.026 395.568 525.01 397.229 528.745C398.969 532.495 400.932 536.151 403.177 539.609C407.005 545.354 413.661 554.24 421.224 553.818C421.229 553.818 421.75 553.922 421.755 553.922C421.885 553.948 421.995 554.016 422.078 554.104C425.807 558.302 431.609 560.089 436.656 557.062C438.219 556.115 439.547 554.776 440.391 553.089C440.76 552.745 441.276 552.568 441.74 552.781C448.219 555.458 455.849 555.724 462.583 553.62C469.323 551.484 475.646 546.641 477.922 539.75C478.214 539.271 478.734 538.953 479.281 539.109C485.646 540.88 492.484 538.391 497.052 533.703C501.703 529 505.234 522.849 506.073 516.208L506.255 515.849C506.406 515.562 506.682 515.385 506.979 515.349C511.531 514.708 515.495 511.089 517.813 507.203C519.401 504.937 519.38 501.484 519.307 499.182C518.844 494.13 519.729 489.161 520.839 484.281C521.99 479.297 523.438 474.589 526.219 470.13L525.984 471.552C524.271 465.266 523.807 458.875 524.349 452.427C524.5 450.297 524.766 448.167 525.078 445.917L525.589 447.49C516.786 440.24 510.807 430.594 506.589 420.089C506.583 420.083 507.625 421.12 507.625 421.115C493.792 417.344 481.99 408.87 473.979 397.021L475.776 397.635C469.828 399.859 463.943 401.755 457.953 403.417C439.958 408.255 421.063 410.693 402.479 408.057L403.943 407.297C398.641 413.995 391.313 423.865 381.859 423.615L383.38 422.443C382.516 424.396 381.859 426.161 381.193 427.979C379.188 433.469 376.422 439.141 370.99 442.047L371.839 440.526C372.536 451.839 371.76 463.031 370.74 474.276C369.911 482.635 368.859 490.974 367.609 499.286C367.177 502.062 366.75 504.828 366.193 507.635C366.193 507.635 366.219 507.115 366.219 507.12C365.266 514.505 373 523.25 380.167 524.042C380.745 524.083 380.979 524.547 381.146 525.021C381.583 527.391 382.141 529.797 382.833 532.172C386.26 544.021 397.474 561.651 408.76 567.016C410.865 568.01 413.177 568.641 415.479 568.557C415.927 568.526 416.276 568.786 416.526 569.109C420.911 576.964 432.396 575.266 438.677 570.656C439.641 569.901 440.521 569.036 441.198 567.979C441.328 567.781 441.563 567.687 441.781 567.724C441.786 567.724 442.682 567.885 442.688 567.885C446.271 570.198 450.896 571 455.172 571.312C464.115 571.849 473.25 569.969 481.318 566.057C485.359 564.12 489.214 561.536 491.88 557.875C492.146 557.464 492.719 557.589 493.12 557.589C497.115 559 501.63 558.604 505.677 557.344C516.745 553.911 530.505 541.995 531.661 529.937C531.688 529.552 531.943 529.24 532.281 529.115C532.281 529.109 532.74 528.943 532.74 528.943C538.563 528.589 543.37 524.193 546.458 519.484C549.339 515.073 550.255 511.297 549.276 506.104C549.042 505.021 548.786 503.906 548.641 502.818C547.807 496.76 548.323 490.729 548.786 484.703C549.339 478.63 549.766 472.755 551.083 466.724C551.203 466.214 551.714 465.896 552.219 466.016C552.818 466.146 553.141 466.849 552.844 467.385Z" fill="#B3AAFF"/>
<path d="M549.88 436.125C541.75 431.635 535.188 424.693 530.198 416.943C527.229 412.188 524.974 407.219 522.844 401.969C522.844 401.969 523.875 402.953 523.87 402.953C517.349 401.219 511.328 398.516 505.516 395.25C497.844 390.911 490.854 385.391 485.24 378.552C483.813 376.854 482.464 375.068 481.125 373.177L482.979 373.75C481.167 374.547 479.38 375.391 477.583 376.214C456.802 385.984 437.995 391.448 414.818 387.786C407.021 386.536 399.396 384.271 392.057 381.292L393.859 380.453C389.766 388.995 384.766 397.495 376.161 402.089C373.365 403.63 370.255 404.688 366.948 405.094L368.13 404.271C366.63 406.401 365.328 408.526 363.938 410.594C359.87 416.969 354.531 422.495 347.859 426.198L348.635 424.714C352.219 450.448 349.635 476.583 344.542 501.922C343.771 505.547 342.88 509.151 341.802 512.755L341.755 511.734C342.031 513.083 342.531 514.38 343.151 515.609C346.255 521.51 352.057 526.625 357.766 529.953C360.146 531.302 362.698 532.38 365.292 532.901C365.792 532.979 366.052 533.401 366.182 533.828C368.375 549.932 378.969 569.807 392.292 579.302C397.073 582.729 402.698 585.016 408.443 585.271C408.693 585.292 408.906 585.38 409.099 585.521C417.375 592.349 431.167 589.891 438.813 583.109C439.953 582.047 440.979 580.87 441.781 579.516C441.932 579.26 442.214 579.13 442.49 579.156C442.495 579.156 443.182 579.219 443.182 579.219C451.167 583.661 460.24 585.536 469.172 587.021C481.063 588.74 493.469 589.359 505.188 586.302C508.057 585.495 510.875 584.406 513.266 582.771C513.401 582.688 513.536 582.641 513.693 582.625C518.333 582.354 522.182 579.052 524.703 575.271C527.359 571.339 529.036 566.776 530.089 562.151C530.135 561.948 530.333 561.823 530.536 561.865C530.734 561.906 530.859 562.104 530.828 562.302C530.385 564.693 529.771 567.052 528.958 569.354C526.547 576.203 521.729 583.651 513.849 584.5L514.276 584.354C504.333 589.969 489.276 589.688 478.135 588.818C465.859 587.885 454.193 584.568 442.234 581.677L443.641 581.38C438.177 584.797 432.943 588.62 426.547 590.005C420.214 591.464 413.229 591.078 407.547 587.646L408.203 587.896C405.089 587.464 402.063 586.573 399.25 585.297C393.635 582.76 388.833 578.802 384.74 574.281C376.583 565.271 371.328 554.188 366.964 542.969C365.839 540.161 364.781 537.328 363.635 534.49L364.526 535.417C359.161 533.151 354.615 529.724 350.443 525.807C346.271 521.901 342.943 517.344 339.38 512.875C339.224 512.552 339.188 512.177 339.328 511.859C340.724 508.516 341.849 505.026 342.839 501.5C346.734 487.328 348.771 472.651 349.255 457.969C349.495 447.01 348.901 435.88 346.057 425.26L346.036 424.911C346 424.38 346.344 423.911 346.833 423.771C352.63 422.078 357.594 418 361.208 413.214C363.417 410.297 365.156 406.953 365.688 403.292C365.688 403.286 365.823 403.042 365.823 403.042C366.036 402.646 366.453 402.438 366.87 402.464C372.859 402.87 378.786 399.859 383.068 395.734C387.464 391.5 390.708 385.844 391.328 379.719C391.526 379.01 392.281 378.573 392.99 378.828C400 382.208 407.411 384.802 415.083 386.276C437.901 390.729 462.813 385.057 481.646 371.484L482.141 371.318C482.724 371.12 483.359 371.464 483.505 372.057C484.026 374.12 484.984 376.073 486.146 377.891C492.88 387.885 506.682 395.703 518.109 399.026C520.177 399.62 522.276 400.083 524.375 400.37L524.802 400.542C525.151 400.682 525.375 401.005 525.401 401.354C525.839 406.766 527.943 411.974 530.818 416.557C533.672 421.188 537.307 425.365 541.495 428.823C542.896 429.979 544.354 431.047 545.885 431.995C547.411 432.953 549.016 433.781 550.656 434.411C551.146 434.599 551.385 435.146 551.198 435.63C551 436.156 550.375 436.391 549.88 436.125Z" fill="#B3AAFF"/>
<path d="M430.813 588.062C434.792 589.411 439.182 588.786 442.964 587.135C443.162 587.047 443.385 587.052 443.578 587.115C461.151 592.911 490.448 584.26 500.5 568.333C500.792 567.953 501.276 567.802 501.708 567.88C504.13 568.365 506.672 568.448 509.214 568.255C521.911 567.099 534.365 560.38 543.359 551.479C547 547.865 550.24 543.531 551.474 538.49C551.625 538.13 551.917 537.844 552.286 537.771C562.484 535.516 572.438 523.313 574.214 513.224C574.479 511.604 574.547 509.958 574.302 508.385L574.38 508.885C572.135 501.031 571.328 492.99 571.302 484.885C571.26 476.766 572.531 468.917 573.375 460.813L573.708 462.089C571.781 459.656 570.182 457.099 568.818 454.438C564.646 446.401 562.724 437.625 562.161 428.594L562.953 429.943C555.406 425.906 549.109 420.286 543.516 413.943C538 407.495 533.349 400.484 530.708 392.266C530.698 392.245 531.911 393.349 531.911 393.344C524.057 392.151 517.214 388.016 510.839 383.563C500.313 376 491.771 366.266 485.885 354.609C485.87 354.589 487.88 355.292 487.875 355.286C487.167 355.604 486.365 356.099 485.656 356.448C482.495 358.078 479.193 359.583 475.938 360.974C455.849 369.531 433.583 373.281 411.839 370.719C403.13 369.667 394.516 367.526 386.339 364.12L388.104 363.406C386.115 366.536 384.177 369.557 382 372.516C375.667 381.135 366.292 389.563 354.906 389.089L356.354 388.052C353.589 393.943 350.62 399.26 346.203 403.938C341.854 408.495 336.115 412.724 329.484 412.536L330.938 411.021L331.917 424.146C333.802 450.208 334.578 476.828 328.672 502.458C327.62 506.729 326.25 510.943 324.297 514.969C324.068 515.432 323.505 515.63 323.037 515.401C322.547 515.167 322.359 514.557 322.63 514.089C333.021 494.281 333.287 459.589 332.026 437.266C331.49 428.583 330.464 419.891 328.344 411.438C328.151 410.714 328.693 409.969 329.443 409.938C329.448 409.938 329.797 409.922 329.802 409.922C332.505 410.505 335.526 409.87 338.208 408.578C343.688 405.922 348.068 401.276 351.198 396.104C352.688 393.505 353.859 390.531 353.781 387.51C353.766 387.151 354 386.844 354.333 386.745C354.333 386.745 355.234 386.474 355.24 386.479C366.922 388.755 379.292 377.391 384.026 367.458C384.76 365.849 385.349 364.167 385.662 362.432C385.776 361.766 386.5 361.354 387.135 361.604C394.953 365.37 403.391 367.901 412.047 369.182C433.63 372.531 462.406 368.427 481.182 356.906C482.24 356.224 482.906 355.802 483.865 355.099C484.745 354.484 485.568 353.786 486.396 353.109C486.979 352.625 487.896 352.818 488.24 353.495C488.24 353.5 488.391 353.792 488.391 353.797C488.75 356.25 489.62 358.635 490.734 360.885C496.229 371.411 507.563 381 518.031 386.422C522.396 388.625 527.229 390.547 532.099 390.714C532.698 390.734 533.182 391.172 533.292 391.734C533.401 393.745 533.802 395.771 534.448 397.734C537.792 407.521 545.177 415.516 553.297 421.682C556.62 424.094 560.198 426.214 563.99 427.521C564.411 427.667 564.693 428.042 564.74 428.458L564.781 428.87C562.521 437.323 565.51 446.526 569.984 453.766C571.563 456.188 573.401 458.453 575.583 460.24C575.964 460.552 576.063 461.063 575.911 461.51C572.609 468.792 572.063 476.974 572.219 484.875C572.391 490.818 573.162 496.76 574.839 502.458C575.37 504.354 576.078 506.188 576.849 507.964C576.917 508.13 576.943 508.302 576.932 508.474C574.146 521.156 565.307 535.104 553.057 540.292C553.052 540.292 553.87 539.578 553.87 539.578C550.786 544.021 547.646 548.182 543.911 552.026C533.583 562.432 516.302 571.807 501.302 570.484C501.302 570.484 502.521 570.031 502.505 570.042C496.365 575.391 489.901 580.318 482.464 583.661C472.677 588.089 461.891 590.505 451.125 590.089C448.417 589.974 445.703 589.609 443.021 588.911C443.021 588.911 443.651 588.891 443.635 588.891C441.51 589.604 439.281 590.021 437.047 590.036C434.818 590.052 432.568 589.661 430.537 588.766C430.344 588.682 430.26 588.458 430.344 588.271C430.427 588.089 430.63 588 430.813 588.062Z" fill="#B3AAFF"/>
<path d="M352.599 541.609C353.547 548.438 356.323 554.885 359.052 561.167C366.672 577.979 380.255 600.823 400.609 602.302C400.891 602.401 401.406 602.495 401.526 602.792C405.354 610.052 413.521 614.099 421.422 615.115C429.49 616.125 437.656 613.906 444.688 610.005C445.146 609.74 445.656 609.859 446.042 610.141C457.276 620.911 474.016 625.333 489.198 622.214C496.813 620.714 504.021 617.521 510.573 613.401C517.182 609.271 523.167 604.203 528.651 598.677C528.964 598.411 529.38 598.328 529.75 598.422C531.266 598.813 532.823 599.047 534.396 599.135C539.198 599.391 543.969 598.271 548.391 596.344C565.302 588.844 579.849 569.005 582.245 550.719C582.344 550.448 582.536 550.229 582.776 550.104C584.693 549.104 586.526 547.885 588.198 546.458C593.297 542.177 596.984 536.354 599.161 530.052C600.375 526.359 601.438 522.49 601.229 518.562C601.198 517.552 601.026 516.208 600.974 515.224C600.807 513.036 600.74 510.729 600.641 508.542C600.495 488.557 605.964 469.276 610.906 450.099L611.333 451.63C603.203 444.521 596.286 435.646 593.281 425.151C592.224 421.651 591.526 418.13 590.755 414.526L591.469 415.677C581.797 410.047 573.479 402.151 567.255 392.88C562.568 385.953 559.328 378.177 557.146 370.125C556.406 367.432 555.776 364.698 555.161 361.927C555.161 361.927 556.417 363.125 556.411 363.125C537.797 361.562 518.229 357.099 504.172 344.036C499.505 339.729 495.583 334.818 491.719 329.75C491.714 329.75 493.464 330.276 493.458 330.276C484.307 333.995 475.302 337.995 465.938 341.125C437.339 351.052 407.13 349.026 378.651 339.776C378.651 339.776 380.333 338.937 380.328 338.948C372.719 354.276 359.969 369.651 341.76 370.99C341.76 370.99 343.016 370.031 343.01 370.036C337.802 380.849 333.849 388.911 322.724 394.823C319.495 396.536 316.036 397.812 312.495 398.802L313.521 397.24C313.953 402.969 314.109 408.562 314.182 414.26C314.302 447.016 306.458 484.073 283.849 508.896C279.974 513.062 275.635 516.828 270.901 520.047L271.5 518.99C270.792 523.729 270.854 528.578 271.542 533.323C272.995 542.75 276.755 552.047 282.995 559.302C286.094 562.901 289.88 565.922 294.115 567.818C294.427 567.953 294.646 568.219 294.74 568.521C295.083 571.161 295.469 573.812 296.115 576.406C297.318 581.49 299.104 586.422 301.193 591.208C312.391 616.62 332.25 642.625 360.807 648.49C365.859 649.453 371.042 649.646 376.125 649.078C376.521 649.031 376.896 649.177 377.156 649.443C385.505 660.583 398.313 668.125 411.839 671.089C425.411 674.109 439.974 671.271 451.714 663.927C451.938 663.781 452.198 663.776 452.438 663.839C459.547 665.995 467.292 664.547 473.922 661.37C480.651 658.141 486.724 653.375 491.406 647.542C491.536 647.38 491.771 647.349 491.938 647.479C492.094 647.604 492.125 647.839 492.005 648C487.359 654.083 481.318 659.068 474.495 662.552C467.635 666.052 459.51 667.755 451.922 665.646L452.646 665.557C449.521 667.224 446.281 668.687 442.943 669.854C421.932 677.344 400.63 671.49 383.484 658.036C380.672 655.906 377.964 653.63 375.271 651.276L376.359 651.698C343.13 653.995 317.427 626.188 303.807 598.661C299.063 589.198 295.714 579.281 292.219 569.271C292.219 569.26 292.901 570.151 292.896 570.151C282.188 563.641 275.693 552.307 272.344 540.568C270.349 533.479 269.448 526.276 268.87 518.901C268.88 518.453 269.115 518.057 269.469 517.839C298.375 499.458 309.641 463.589 312.781 431.068C313.443 422.708 313.885 414.245 312.797 405.906C312.411 403.141 311.87 400.38 310.948 397.786C310.948 397.781 310.922 397.562 310.922 397.557C310.849 396.901 311.318 396.302 311.979 396.219C318.932 395.385 325.724 392.573 330.885 387.755C336.01 382.948 339.87 376.406 340.479 369.307L340.552 369.12C340.74 368.625 341.229 368.323 341.734 368.354C345.839 368.599 350.036 367.786 353.927 366.182C364.922 361.583 375.589 350.01 377.828 338.12C378.057 337.422 378.813 337.021 379.51 337.286C384.089 338.974 388.729 340.505 393.438 341.807C407.578 345.656 422.344 347.469 436.984 346.286C456.536 344.76 475.609 338.26 492.266 327.927L492.635 327.807C493.193 327.625 493.792 327.917 494.01 328.453C498.641 340.068 509.042 348.542 520.234 353.573C525.854 356.094 531.953 357.807 538.021 358.885C544.13 359.969 550.333 360.453 556.536 360.495L556.88 360.562C557.427 360.667 557.802 361.151 557.786 361.687C557.448 372.719 561.781 383.427 567.995 392.37C574.266 401.26 582.781 408.807 592.672 413.333C593.13 413.552 593.385 414 593.385 414.484C592.099 421.505 594.703 428.63 598.26 434.609C601.922 440.62 607.031 445.724 612.922 449.531C613.37 449.818 613.552 450.354 613.417 450.839L613.354 451.062C604.641 468.016 602.818 489.646 603.245 508.453C603.313 510.036 603.49 511.984 603.417 513.557C603.354 515.224 602.99 517.052 602.625 518.688C601.729 522.573 601.25 526.531 599.943 530.318C597.12 539.062 591.766 547 584.146 552.354C584.146 552.354 584.74 551.547 584.734 551.552C582.286 557.792 579.771 563.891 576.589 569.76C570.208 581.318 561.01 591.828 549.031 597.74C542.953 600.693 535.943 602.219 529.193 600.995L530.38 600.661C524.484 605.911 518.203 610.76 511.38 614.734C493.375 625.385 473.901 627.453 454.948 617.875C451.38 616.182 447.938 614.24 444.464 612.25L445.818 612.385C434.219 617.177 420.776 618.531 409.578 611.943C405.906 609.839 402.682 607.24 399.464 604.427L400.385 604.922C393.219 604.141 386.635 600.641 381.281 595.99C368.229 584.354 360.458 567.958 354.448 551.844C353.245 548.583 352.026 545.37 350.771 542.052C350.354 540.682 352.375 540.234 352.599 541.609Z" fill="#B3AAFF"/>
<path d="M340.167 548.396C342.5 556.391 347.156 563.62 352.99 569.521C357.552 574.115 363.125 577.771 369.156 580.109C369.604 580.281 369.359 581 368.87 580.807C358.422 576.427 349.76 568.552 343.76 559.005C341.724 555.844 339.938 552.526 338.396 549.031C337.906 547.802 339.76 547.115 340.167 548.396Z" fill="#B3AAFF"/>
<path d="M364.448 436.937C359.24 442.88 354.682 449.573 351.651 456.896C350.688 459.349 349.922 461.906 349.708 464.51C349.672 464.99 348.938 464.964 348.958 464.464C349.797 453.099 352.609 442.01 355.427 431.005C355.708 430.042 357.146 430.432 356.875 431.422C355.182 436.823 353.672 442.276 352.365 447.786C351.083 453.276 349.906 458.854 349.708 464.495L348.958 464.448C349.063 463.776 349.141 463.099 349.271 462.437C350.25 457.833 352.224 453.505 354.448 449.38C357.036 444.677 359.979 440.193 363.302 435.964C363.948 435.187 365.13 436.161 364.448 436.937Z" fill="#B3AAFF"/>
<path d="M297.604 383.901C307.203 418.802 311.172 488.177 290.307 518.953L290.536 518.057C290.182 526.953 294.161 535.682 300.229 542.062C306.318 548.516 314.531 552.714 323.094 554.719C323.646 554.828 323.943 555.307 324.021 555.807C324.599 564.182 328.354 572.089 332.401 579.349C340.927 593.885 351.953 607.297 365.771 617.078C372.578 621.797 380.359 625.625 388.625 626.5C389.005 626.531 389.302 626.75 389.51 627.031C390.109 628.198 390.875 629.302 391.734 630.333C398.005 637.589 407.396 641.469 416.531 643.693C427.089 646.115 438.552 645.568 448.505 641.219C448.807 641.12 449.125 641.146 449.396 641.266C470.776 651.255 493.167 650.583 514.078 639.63C526.104 633.396 537.297 625.37 546.474 615.349C546.75 615.125 547.094 615.042 547.422 615.089C550.849 615.599 554.38 615.49 557.786 614.708C564.734 613.125 570.807 608.969 575.719 603.88C587.354 591.672 595.911 572.333 598.188 555.667L598.245 555.49C598.359 555.13 598.641 554.87 598.969 554.755C606.688 551.979 610.62 543.5 613.297 536.245C614.667 532.344 615.734 528.333 616.583 524.276C617.453 520.214 617.344 515.99 617.792 511.885L617.802 512.286C616.568 501.047 617.302 489.911 618.401 478.74C619.411 467.526 621.943 456.792 623.635 445.62L624.031 447.01C618.516 441.562 614.198 435.036 611.354 427.87C608.464 420.734 607.24 413.141 605.76 405.62L606.531 406.76C589.766 397.76 577.578 381.755 571.229 364.047C569.13 358.13 567.729 351.958 567.036 345.599L568.318 346.885C561.063 346.422 553.76 345.714 546.661 343.958C527.776 339.5 514.495 328.182 503.568 312.604C501.411 309.672 499.365 306.672 497.13 303.745L499.031 304.182C470.74 320.536 438.583 332.036 405.552 330.089C394.62 329.385 383.703 327.016 373.557 322.562L375.328 321.88C372.792 326.135 370.349 330.385 367.37 334.333C358.052 347.297 344.49 352.792 328.76 352.068C328.76 352.073 329.99 351.469 329.99 351.469C326.885 354.677 324.057 357.943 320.818 360.964C311.188 370.12 297.901 374.667 284.688 374.312L286.099 372.984C284.656 398.401 284.281 423.849 279.776 448.958C275.219 473.76 268.635 499.938 251.156 519.047C250.656 519.573 249.823 519.599 249.297 519.094C248.75 518.583 248.745 517.714 249.281 517.193C270.703 495.62 277.859 459.255 281.615 429.979C283.703 411.089 285.099 392.005 283.464 373.016C283.406 372.349 283.901 371.76 284.568 371.698C297.594 373.38 310.672 369.448 320.302 360.406C323.479 357.531 326.224 354.078 327.771 350.052C327.88 349.766 328.13 349.578 328.411 349.536L329 349.448C338.417 350.901 348.49 349.365 356.474 343.937C364.469 338.562 370.401 330.156 372.901 320.859C373.068 320.255 373.688 319.901 374.292 320.068L374.672 320.177C408.599 336.656 451.823 327.974 484.036 311.021C488.781 308.385 493.37 305.453 497.531 302.016C498.068 301.573 498.891 301.682 499.286 302.255C499.292 302.255 499.432 302.458 499.432 302.458C502.094 309.167 506.125 315.25 510.823 320.698C515.505 326.161 520.953 330.979 527.083 334.708C539.396 342.365 554.115 344.432 568.391 344.25C569.057 344.25 569.604 344.76 569.656 345.411C568.714 364.094 578.604 382.198 592.193 394.516C596.807 398.604 601.99 402.104 607.625 404.359C608.057 404.531 608.333 404.927 608.38 405.354C608.234 407.281 608.109 409.214 608.224 411.146C608.724 420.505 612.146 429.776 617.807 437.229C620.089 440.193 622.76 442.833 625.745 445.016C626.125 445.292 626.286 445.755 626.193 446.187C626.193 446.193 626.141 446.411 626.141 446.417C623.615 451.375 622.401 456.865 621.469 462.318C620.052 470.521 619.188 478.818 618.885 487.135C618.62 495.359 618.74 503.823 620.396 511.849C620.469 512.51 620.234 513.156 620.109 513.797C619.292 517.365 618.109 520.865 617.328 524.432C614.943 534.87 611.661 548.568 602.839 555.438C601.943 556.094 600.99 556.693 599.969 557.193L600.745 556.286C595.266 571.63 590.26 587.495 580.099 600.51C572.26 610.885 560.672 618.917 547.13 617.703L548.156 617.375C540.771 622.755 533.703 628.396 526.167 633.453C501.203 650.125 476.807 654.948 448.38 643.698C448.38 643.698 449.365 643.714 449.354 643.714C438.714 647.224 427.13 647.354 416.313 644.609C405.479 641.859 395.385 636.479 387.385 628.583L388.276 629.109C371.125 625.943 357.448 613.359 346.422 600.609C338.172 590.823 331.224 579.99 325.828 568.38C324.026 564.422 322.406 560.448 321.411 556.156L322.339 557.24C309.547 552.714 297.682 544.057 292.24 531.318C290.349 527.151 289.057 522.797 287.917 518.344C287.88 518.016 287.969 517.698 288.146 517.453C308.182 488.823 306.156 430.234 299.781 396.698C298.88 392.557 297.885 388.318 296.203 384.448C296.031 384.068 296.203 383.615 296.583 383.448C296.99 383.266 297.469 383.479 297.604 383.901Z" fill="#B3AAFF"/>
<path d="M575.5 424.109C573.328 433.063 575.594 442.802 580.12 450.693C581.688 453.318 583.594 455.745 585.849 457.75C586.234 458.099 586.271 458.693 585.922 459.078C585.552 459.505 584.88 459.5 584.516 459.078C580.286 454.307 577.417 448.578 575.661 442.505C573.927 436.422 573.333 430.161 573.646 423.823C573.776 422.458 575.797 422.755 575.5 424.109Z" fill="#B3AAFF"/>
<mask id="mask8_19_171" style="mask-type:luminance" maskUnits="userSpaceOnUse" x="618" y="473" width="16" height="42">
<path d="M618 473.667H633.042V515H618V473.667Z" fill="white"/>
</mask>
<g mask="url(#mask8_19_171)">
<path d="M619.646 475.099C619.563 478.573 620.469 482.057 621.271 485.432C623.781 494.646 628.104 506.776 635.911 512.661C636.26 512.901 636.339 513.38 636.094 513.719C635.849 514.063 635.37 514.135 635.036 513.88C626.104 507.01 621.198 491.193 619.302 480.417C619.031 478.62 618.766 476.865 618.896 475.021C618.917 474.818 619.099 474.661 619.302 474.677C619.516 474.698 619.667 474.885 619.646 475.099Z" fill="#B3AAFF"/>
</g>
<path d="M524.047 593.266C526.609 592.682 530.052 591.766 532.505 590.958C533.677 590.594 535.453 589.885 536.63 589.469C537.802 589.031 539.469 588.203 540.641 587.698C541.948 587.042 543.224 586.333 544.516 585.651C545.135 585.266 546.708 584.281 547.302 583.906C559.604 575.839 568.75 561.911 573.552 548.146C574.005 546.906 575.891 547.635 575.276 548.906C565.547 567.339 557.333 582.057 537.151 590.719C536.51 590.979 534.682 591.734 534.052 591.99C531.198 593.125 527.464 594.234 524.495 595.094C523.25 595.417 522.766 593.568 524.047 593.266Z" fill="#B3AAFF"/>
<path d="M447.422 623.583C453.484 626.214 460.443 626.297 466.844 624.859C469.01 624.359 471.141 623.682 473.229 622.885C473.422 622.807 473.646 622.901 473.719 623.099C473.792 623.286 473.703 623.5 473.521 623.578C471.432 624.479 469.292 625.255 467.094 625.865C462.672 627.057 458.026 627.516 453.453 626.974C451.156 626.714 448.885 626.156 446.693 625.312C446.208 625.13 445.964 624.583 446.151 624.099C446.344 623.594 446.932 623.354 447.422 623.583Z" fill="#B3AAFF"/>
<path d="M491.385 341.438C499.646 356.604 515.896 366.547 532.813 368.901C534.047 369.135 535.807 369.302 537.073 369.396C539.057 369.615 541.5 369.646 543.5 369.677C544.99 369.745 548.417 369.505 549.927 369.458C550.354 369.417 550.74 369.74 550.76 370.172C550.781 370.599 550.438 370.958 550.016 370.958L545.656 370.995L544.568 371.005L543.479 370.953C541.448 370.865 538.979 370.766 536.969 370.479C535.672 370.349 533.906 370.151 532.656 369.891C530.203 369.526 527.62 368.901 525.219 368.26C524.042 367.875 522.245 367.328 521.073 366.927C507.49 362.021 498.583 353.667 489.813 342.469C489.021 341.401 490.672 340.24 491.385 341.438Z" fill="#B3AAFF"/>
<path d="M579.906 331.031C576.016 342.75 578.063 369.135 581.932 381.016C582.677 383.292 583.594 385.557 585.01 387.422C585.146 387.589 585.12 387.833 584.948 387.964C584.781 388.094 584.536 388.057 584.417 387.885C582.943 385.844 582.042 383.536 581.307 381.219C578.521 371.896 577.599 362.125 577.151 352.437C576.958 347.578 576.953 342.719 577.313 337.854C577.521 335.422 577.776 332.984 578.484 330.536C578.599 330.135 579.021 329.906 579.417 330.021C579.844 330.146 580.073 330.62 579.906 331.031Z" fill="#B3AAFF"/>
<path d="M383.521 351.802C403.224 355.406 429.37 356.505 446.755 345.214C446.927 345.094 447.162 345.141 447.281 345.312C447.396 345.479 447.349 345.714 447.182 345.833C429.662 357.5 403.287 356.703 383.24 353.281C382.281 353.083 382.516 351.635 383.521 351.802Z" fill="#B3AAFF"/>
</g>
</g>
</svg>
